<?xml version="1.0" encoding="utf-8"?>
<!-- Generator: Adobe Illustrator 19.2.1, SVG Export Plug-In . SVG Version: 6.00 Build 0)  -->
<svg version="1.1" id="Layer_1" xmlns="http://www.w3.org/2000/svg" xmlns:xlink="http://www.w3.org/1999/xlink" x="0px" y="0px"
	 viewBox="0 0 80 60" style="enable-background:new 0 0 80 60;" xml:space="preserve">
<style type="text/css">
	.st0{opacity:0.8;}
	.st1{fill:#F26547;}
</style>
<rect class="st0" width="80" height="60"/>
<path class="st1" d="M46.9,19h-1.8L35,21.5V36c0,0-0.6-0.4-1.9-0.4c-2.1,0-4,1.3-4,3.4c0,1.6,1.4,2.5,3,2.5c3.3,0,5-2.3,5-4l0-13.1
	l8-2.4v11c0,0-0.7-0.4-2.1-0.4c-2.1,0-4,1.3-4,3.4c0,1.6,1.3,2.5,3,2.5c3.3,0,5-2.1,5-3.8L46.9,19z"/>
</svg>
